<?xml version="1.0" encoding="UTF-8"?>
<svg xmlns="http://www.w3.org/2000/svg" xmlns:xlink="http://www.w3.org/1999/xlink" width="20pt" height="20pt" viewBox="0 0 100 100" version="1.1">
<g id="surface1">
<path style=" stroke:none;fill-rule:nonzero;fill:rgb(0%,0%,0.784314%);fill-opacity:1;" d="M 95.675781 94.417969 L 67.011719 64.605469 C 74.109375 57.765625 78.535156 48.175781 78.535156 37.566406 C 78.535156 16.851562 61.683594 0 40.96875 0 C 20.253906 0 3.402344 16.851562 3.402344 37.566406 C 3.402344 58.28125 20.253906 75.132812 40.96875 75.132812 C 48.699219 75.132812 55.886719 72.785156 61.867188 68.769531 L 90.921875 98.988281 C 91.570312 99.660156 92.433594 100 93.300781 100 C 94.121094 100 94.945312 99.695312 95.585938 99.078125 C 96.898438 97.816406 96.941406 95.730469 95.675781 94.417969 Z M 10 37.566406 C 10 20.488281 23.890625 6.597656 40.96875 6.597656 C 58.046875 6.597656 71.941406 20.488281 71.941406 37.566406 C 71.941406 54.644531 58.046875 68.539062 40.96875 68.539062 C 23.890625 68.539062 10 54.644531 10 37.566406 Z M 10 37.566406 "/>
<path style=" stroke:none;fill-rule:nonzero;fill:rgb(0%,0%,0.784314%);fill-opacity:1;" d="M 57.789062 34.269531 L 44.265625 34.269531 L 44.265625 20.746094 C 44.265625 18.925781 42.792969 17.449219 40.96875 17.449219 C 39.148438 17.449219 37.671875 18.925781 37.671875 20.746094 L 37.671875 34.269531 L 24.148438 34.269531 C 22.328125 34.269531 20.851562 35.746094 20.851562 37.566406 C 20.851562 39.390625 22.328125 40.867188 24.148438 40.867188 L 37.671875 40.867188 L 37.671875 54.386719 C 37.671875 56.207031 39.148438 57.683594 40.96875 57.683594 C 42.789062 57.683594 44.265625 56.207031 44.265625 54.386719 L 44.265625 40.867188 L 57.789062 40.867188 C 59.609375 40.867188 61.085938 39.390625 61.085938 37.566406 C 61.085938 35.746094 59.609375 34.269531 57.789062 34.269531 Z M 57.789062 34.269531 "/>
</g>
</svg>
